<?xml version="1.0" encoding="utf-8"?><svg viewBox="0 0 219 45" xmlns="http://www.w3.org/2000/svg" xmlns:xlink="http://www.w3.org/1999/xlink"><style>:root>svg{display:none}:root>svg:target{display:block}</style><svg fill="none" viewBox="0 0 31 32" id="dark" xmlns="http://www.w3.org/2000/svg"><path d="M0 18.598c0-5.743 3.263-10.666 7.886-12.58.816-.274 1.36-.274 1.632.273.271.273.271.82 0 1.64-.544 1.095-.816 2.736-.816 4.65 0 6.564 4.35 10.94 11.149 10.94 1.632 0 2.991-.273 4.35-.82.545-.274 1.088-.274 1.36 0 .272.273.544.82 0 1.64C23.386 29.266 19.035 32 13.325 32 5.71 31.727 0 25.983 0 18.598zm22.298 6.564c-.544.274-1.903.274-2.991.274-7.614 0-12.78-4.923-12.78-12.581 0-1.368.271-2.735.543-3.83-2.72 2.189-4.35 5.47-4.35 9.3 0 6.29 4.35 10.94 10.877 10.94 3.535 0 6.798-1.368 8.701-4.103zM17.404 6.838c-.544-2.462-.544-2.462-2.992-3.009-.272 0-.272 0-.272-.273 0-.274 0-.274.272-.274 2.72-.547 2.448-.547 2.992-3.008 0-.274.271-.274.271-.274.272 0 .272 0 .272.274.544 2.461.544 2.461 2.992 3.008.272 0 .272.274.272.274s0 .273-.272.273c-2.72.547-2.72.547-2.992 3.009 0 .273-.272.273-.272.273-.271 0-.271 0-.271-.273zm7.07 10.12c-.544-4.103-.544-4.103-4.895-4.924-.272 0-.544-.273-.544-.547 0-.273.272-.547.544-.547 4.079-.82 4.35-.82 4.895-4.923 0-.273.272-.547.544-.547.271 0 .543.274.543.547.544 4.103.544 4.103 4.895 4.923.272 0 .544.274.544.547 0 .274-.272.547-.544.547-4.079.82-4.35.82-4.895 4.923 0 .274-.271.547-.543.547s-.544-.273-.544-.547z" fill="#fff"/></svg><svg fill="none" viewBox="0 0 33 34" id="light" xmlns="http://www.w3.org/2000/svg"><path d="M4.4 15.607c.825 0 1.375.557 1.375 1.393s-.55 1.393-1.375 1.393H1.375C.55 18.393 0 17.836 0 17s.55-1.393 1.375-1.393H4.4zm2.475 9.196c.55-.557 1.375-.557 1.925 0a1.36 1.36 0 010 1.951l-2.2 2.23c-.55.557-1.375.557-1.925 0a1.36 1.36 0 010-1.951l2.2-2.23zm-2.2-17.557a1.36 1.36 0 010-1.95c.55-.558 1.375-.558 1.925 0l2.2 2.229a1.36 1.36 0 010 1.95c-.55.558-1.375.558-1.925 0l-2.2-2.23zM24.2 17c0 4.459-3.575 8.082-7.975 8.082-4.4 0-7.975-3.623-7.975-8.082 0-4.459 3.575-8.082 7.975-8.082C20.9 9.197 24.2 12.82 24.2 17zM11 17a5.256 5.256 0 005.225 5.295c3.025 0 5.225-2.508 5.225-5.295a5.256 5.256 0 00-5.225-5.295C13.475 11.705 11 14.213 11 17zm6.875-12.262c0 .836-.55 1.393-1.375 1.393s-1.375-.557-1.375-1.393V1.393C15.125.557 15.675 0 16.5 0s1.375.557 1.375 1.393v3.345zm0 27.869c0 .836-.55 1.393-1.375 1.393s-1.375-.557-1.375-1.393V29.54c0-.836.55-1.393 1.375-1.393s1.375.557 1.375 1.393v3.066zM26.4 5.017c.55-.558 1.375-.558 1.925 0a1.36 1.36 0 010 1.95l-2.2 2.23c-.55.557-1.375.557-1.925 0a1.36 1.36 0 010-1.951l2.2-2.23zm1.925 22.016a1.36 1.36 0 010 1.95c-.55.558-1.375.558-1.925 0l-2.2-2.229a1.36 1.36 0 010-1.95c.55-.558 1.375-.558 1.925 0l2.2 2.229zm.275-8.64c-.825 0-1.375-.557-1.375-1.393s.55-1.393 1.375-1.393h3.025c.825 0 1.375.557 1.375 1.393s-.55 1.393-1.375 1.393H28.6z" fill="#000"/></svg><svg fill="none" viewBox="0 0 219 45" id="logo" xmlns="http://www.w3.org/2000/svg"><path d="M31.185 30.866h8.164c-1.198 4.55-3.484 8.015-6.858 10.398C29.117 43.754 24.871 45 19.756 45c-6.204 0-11.048-2.004-14.531-6.01C1.742 35.09 0 29.512 0 22.255 0 15.325 1.687 9.91 5.061 6.011 8.545 2.004 13.388 0 19.593 0c6.53 0 11.592 1.95 15.184 5.848 3.483 4.008 5.225 9.585 5.225 16.733v1.787c0 .542-.055.92-.164 1.137H11.592c.11 3.358.925 5.849 2.45 7.473 1.414 1.733 3.537 2.6 6.367 2.6 1.85 0 3.429-.38 4.735-1.138a2.05 2.05 0 00.816-.487l.98-.975c.109-.325.49-.758 1.143-1.3.762-.54 1.796-.812 3.102-.812zM11.592 18.195h16.654c-.218-2.924-.98-5.09-2.286-6.498-1.415-1.516-3.428-2.275-6.04-2.275-2.396 0-4.355.758-5.879 2.275-1.524 1.516-2.34 3.682-2.449 6.498zm75.83 4.224c-1.523.758-3.646 1.462-6.367 2.112l-3.756.812c-1.959.541-3.374 1.245-4.245 2.112-.761 1.191-1.142 2.383-1.142 3.574 0 1.624.49 2.924 1.469 3.899.98.866 2.395 1.3 4.245 1.3 3.048 0 5.442-.867 7.184-2.6s2.612-4.115 2.612-7.148v-4.06zM90.035 42.4a19.16 19.16 0 01-7.347 2.112c-2.504.325-4.735.487-6.695.487-3.918 0-7.347-1.029-10.286-3.087-2.939-2.166-4.408-5.686-4.408-10.56 0-4.548 1.306-7.797 3.918-9.747 2.722-1.949 6.15-3.249 10.287-3.898.544 0 1.197-.055 1.959-.163a16.06 16.06 0 012.612-.487c4.79-.65 7.184-2.058 7.184-4.224 0-1.625-.87-2.653-2.612-3.087-1.633-.541-3.157-.812-4.572-.812-1.524 0-2.884.217-4.082.65-1.197.433-2.068 1.245-2.612 2.437h-10.94c.436-3.358 1.96-6.12 4.572-8.286C69.953 1.246 74.143 0 79.585 0 85.681 0 90.252 1.029 93.3 3.087c3.157 2.166 4.735 5.198 4.735 9.097v14.784c0 4.332-.816 7.743-2.449 10.234-1.524 2.383-3.374 4.116-5.551 5.199zm29.134-12.508h11.102c.109 2.166.926 3.79 2.45 4.873 1.632 1.083 3.809 1.625 6.53 1.625 1.96 0 3.647-.38 5.062-1.137 1.306-.758 1.959-1.787 1.959-3.087 0-1.95-2.286-3.411-6.857-4.386-1.96-.325-3.429-.65-4.409-.975-5.769-1.408-9.633-3.087-11.592-5.036-2.177-1.95-3.265-4.549-3.265-7.798 0-4.115 1.578-7.527 4.734-10.235C128.149 1.246 132.394 0 137.619 0c5.66 0 10.177 1.245 13.551 3.736 3.157 2.708 4.844 6.228 5.062 10.56h-7.021c-2.068 0-3.646-.92-4.735-2.762l-1.306-1.3c-1.306-.974-3.102-1.461-5.388-1.461-2.177 0-3.81.324-4.898.974-.98.65-1.47 1.625-1.47 2.925 0 1.732 2.83 3.194 8.491 4.386a23.24 23.24 0 001.632.487 7.603 7.603 0 001.47.163c5.551 1.408 9.415 3.032 11.592 4.873 2.068 1.95 3.102 4.549 3.102 7.798 0 4.765-1.741 8.448-5.225 11.047-3.265 2.383-8.163 3.574-14.694 3.574-6.204 0-10.83-1.245-13.878-3.736-3.157-2.491-4.735-6.12-4.735-10.885v-.487zm91.014.974h8.164c-1.197 4.55-3.483 8.015-6.858 10.398-3.374 2.49-7.619 3.736-12.735 3.736-6.204 0-11.048-2.004-14.531-6.01-3.483-3.9-5.225-9.477-5.225-16.734 0-6.931 1.688-12.346 5.062-16.245C187.543 2.004 192.387 0 198.591 0c6.531 0 11.592 1.95 15.184 5.848C217.258 9.856 219 15.433 219 22.581v1.787c0 .542-.054.92-.163 1.137h-28.246c.109 3.358.925 5.849 2.449 7.473 1.415 1.733 3.537 2.6 6.367 2.6 1.851 0 3.429-.38 4.735-1.138.327-.108.599-.27.817-.487l.979-.975c.109-.325.49-.758 1.143-1.3.762-.54 1.796-.812 3.102-.812zm-19.592-12.671h16.653c-.217-2.924-.979-5.09-2.285-6.498-1.415-1.516-3.429-2.275-6.041-2.275-2.395 0-4.354.758-5.878 2.275-1.524 1.516-2.34 3.682-2.449 6.498z" fill="#3D9090"/></svg></svg>